<?xml version="1.0" encoding="UTF-8"?>
<!DOCTYPE svg PUBLIC "-//W3C//DTD SVG 1.1//EN" "http://www.w3.org/Graphics/SVG/1.1/DTD/svg11.dtd">
<svg xmlns="http://www.w3.org/2000/svg" version="1.1" width="512px" height="512px" style="shape-rendering:geometricPrecision; text-rendering:geometricPrecision; image-rendering:optimizeQuality; fill-rule:evenodd; clip-rule:evenodd" xmlns:xlink="http://www.w3.org/1999/xlink">
<g><path style="opacity:0.961" fill="#000000" d="M 234.5,-0.5 C 248.5,-0.5 262.5,-0.5 276.5,-0.5C 364.705,11.2101 427.205,57.5434 464,138.5C 494.387,220.455 483.72,296.455 432,366.5C 399.495,405.952 358.328,432.118 308.5,445C 294.543,465.747 280.709,486.581 267,507.5C 264.985,508.697 263.151,510.03 261.5,511.5C 257.5,511.5 253.5,511.5 249.5,511.5C 247.849,510.03 246.015,508.697 244,507.5C 230.291,486.581 216.457,465.747 202.5,445C 130.568,425.482 79.0681,381.982 48,314.5C 28.0868,264.532 25.0868,213.532 39,161.5C 63.5784,85.9215 113.412,35.0881 188.5,9C 203.746,4.71837 219.079,1.5517 234.5,-0.5 Z M 254.5,29.5 C 327.048,32.3153 382.881,63.982 422,124.5C 454.225,181.896 458.225,241.229 434,302.5C 404.678,364.43 356.512,402.93 289.5,418C 277.581,434.088 266.248,450.588 255.5,467.5C 244.752,450.588 233.419,434.088 221.5,418C 150.276,401.769 100.776,359.935 73,292.5C 47.3042,210.785 64.8042,139.952 125.5,80C 162.516,47.938 205.516,31.1046 254.5,29.5 Z M 250.5,90.5 C 261.422,89.1971 267.922,93.8637 270,104.5C 270.667,144.833 270.667,185.167 270,225.5C 266.437,239.528 258.271,243.028 245.5,236C 242.773,233.044 241.273,229.544 241,225.5C 240.333,185.167 240.333,144.833 241,104.5C 241.959,98.2229 245.126,93.5563 250.5,90.5 Z M 250.5,331.5 C 264.652,330.151 270.819,336.485 269,350.5C 263.135,360.246 255.301,362.08 245.5,356C 238.906,346.014 240.573,337.848 250.5,331.5 Z"/></g>
<g><path style="opacity:0.983" fill="#000000" d="M 245.5,59.5 C 268.793,56.3955 285.959,65.0622 297,85.5C 298.286,88.4055 299.286,91.4055 300,94.5C 300.667,141.5 300.667,188.5 300,235.5C 295.167,253.667 283.667,265.167 265.5,270C 242.182,273.591 225.015,265.091 214,244.5C 212.714,241.595 211.714,238.595 211,235.5C 210.333,188.5 210.333,141.5 211,94.5C 216.016,76.3183 227.516,64.6517 245.5,59.5 Z M 250.5,90.5 C 245.126,93.5563 241.959,98.2229 241,104.5C 240.333,144.833 240.333,185.167 241,225.5C 241.273,229.544 242.773,233.044 245.5,236C 258.271,243.028 266.437,239.528 270,225.5C 270.667,185.167 270.667,144.833 270,104.5C 267.922,93.8637 261.422,89.1971 250.5,90.5 Z"/></g>
<g><path style="opacity:0.962" fill="#000000" d="M 245.5,300.5 C 268.793,297.396 285.959,306.062 297,326.5C 305.029,347.545 300.862,365.712 284.5,381C 267.989,392.094 250.656,393.427 232.5,385C 209.914,368.83 204.414,347.997 216,322.5C 223.172,311.481 233.005,304.148 245.5,300.5 Z M 250.5,331.5 C 240.573,337.848 238.906,346.014 245.5,356C 255.301,362.08 263.135,360.246 269,350.5C 270.819,336.485 264.652,330.151 250.5,331.5 Z"/></g>
</svg>
